REM DIRINDEX 1\2,1\3\7,1\3\8,1\4\9,1\4\10,1\4\11,1\5\12,1\5\13,1\5\14,1\6\15,1\6\16,1\6\17
REM DIRNAME "folder01","folder02","folder03","folder04","folder05","folder06","folder07","folder08","folder09","folder10","folder11","folder12","folder13","folder14","folder15","folder16","folder17"
TITLE ""
FILE "2Q_t_1252-1269.mp3" MP3
  TRACK 01 AUDIO
    TITLE "0:"
    INDEX 01 00:00:00
  TRACK 02 AUDIO
    TITLE "7:cjc174_4302"
    INDEX 01 00:00:14
  TRACK 03 AUDIO
    TITLE "0:"
    INDEX 01 00:01:53
  TRACK 04 AUDIO
    TITLE "8:cjc174_4303"
    INDEX 01 00:02:25
  TRACK 05 AUDIO
    TITLE "0:"
    INDEX 01 00:03:38
  TRACK 06 AUDIO
    TITLE "7:cjc174_4304"
    INDEX 01 00:04:10
  TRACK 07 AUDIO
    TITLE "0:"
    INDEX 01 00:05:13
  TRACK 08 AUDIO
    TITLE "8:cjc174_4305"
    INDEX 01 00:05:62
  TRACK 09 AUDIO
    TITLE "0:"
    INDEX 01 00:09:03
  TRACK 10 AUDIO
    TITLE "7:cjc174_4306"
    INDEX 01 00:09:50
  TRACK 11 AUDIO
    TITLE "0:"
    INDEX 01 00:10:69
  TRACK 12 AUDIO
    TITLE "8:cjc174_4307"
    INDEX 01 00:11:43
  TRACK 13 AUDIO
    TITLE "0:"
    INDEX 01 00:12:35
  TRACK 14 AUDIO
    TITLE "7:cjc174_4308"
    INDEX 01 00:13:07
  TRACK 15 AUDIO
    TITLE "0:"
    INDEX 01 00:14:08
  TRACK 16 AUDIO
    TITLE "8:cjc174_4309"
    INDEX 01 00:14:59
  TRACK 17 AUDIO
    TITLE "0:"
    INDEX 01 00:16:52
  TRACK 18 AUDIO
    TITLE "7:cjc174_4310"
    INDEX 01 00:17:22
  TRACK 19 AUDIO
    TITLE "0:"
    INDEX 01 00:18:24
  TRACK 20 AUDIO
    TITLE "8:cjc174_4311"
    INDEX 01 00:19:08
  TRACK 21 AUDIO
    TITLE "0:"
    INDEX 01 00:20:09
  TRACK 22 AUDIO
    TITLE "7:cjc174_4312"
    INDEX 01 00:20:58
  TRACK 23 AUDIO
    TITLE "0:"
    INDEX 01 00:22:02
  TRACK 24 AUDIO
    TITLE "8:cjc174_4313"
    INDEX 01 00:22:49
  TRACK 25 AUDIO
    TITLE "0:"
    INDEX 01 00:24:30
  TRACK 26 AUDIO
    TITLE "7:cjc174_4314"
    INDEX 01 00:25:00
  TRACK 27 AUDIO
    TITLE "0:"
    INDEX 01 00:26:12
  TRACK 28 AUDIO
    TITLE "8:cjc174_4315"
    INDEX 01 00:26:59
  TRACK 29 AUDIO
    TITLE "0:"
    INDEX 01 00:29:45
  TRACK 30 AUDIO
    TITLE "7:cjc174_4316"
    INDEX 01 00:30:15
  TRACK 31 AUDIO
    TITLE "0:"
    INDEX 01 00:31:56
  TRACK 32 AUDIO
    TITLE "8:cjc174_4317"
    INDEX 01 00:32:28
  TRACK 33 AUDIO
    TITLE "0:"
    INDEX 01 00:35:58
  TRACK 34 AUDIO
    TITLE "7:cjc174_4318"
    INDEX 01 00:36:28
  TRACK 35 AUDIO
    TITLE "0:"
    INDEX 01 00:37:41
  TRACK 36 AUDIO
    TITLE "8:cjc174_4319"
    INDEX 01 00:38:21
  TRACK 37 AUDIO
    TITLE "0:"
    INDEX 01 00:40:25
  TRACK 38 AUDIO
    TITLE "7:cjc174_4320"
    INDEX 01 00:40:73
  TRACK 39 AUDIO
    TITLE "0:"
    INDEX 01 00:42:09
  TRACK 40 AUDIO
    TITLE "8:cjc174_4321"
    INDEX 01 00:42:62
  TRACK 41 AUDIO
    TITLE "0:"
    INDEX 01 00:45:05
  TRACK 42 AUDIO
    TITLE "7:cjc174_4322"
    INDEX 01 00:45:48
  TRACK 43 AUDIO
    TITLE "0:"
    INDEX 01 00:46:63
  TRACK 44 AUDIO
    TITLE "8:cjc174_4323"
    INDEX 01 00:47:43
  TRACK 45 AUDIO
    TITLE "0:"
    INDEX 01 00:48:49
  TRACK 46 AUDIO
    TITLE "7:cjc174_4324"
    INDEX 01 00:49:19
  TRACK 47 AUDIO
    TITLE "0:"
    INDEX 01 00:50:38
  TRACK 48 AUDIO
    TITLE "8:cjc174_4325"
    INDEX 01 00:51:16
  TRACK 49 AUDIO
    TITLE "0:"
    INDEX 01 00:53:32
  TRACK 50 AUDIO
    TITLE "7:cjc174_4326"
    INDEX 01 00:54:02
  TRACK 51 AUDIO
    TITLE "0:"
    INDEX 01 00:55:17
  TRACK 52 AUDIO
    TITLE "8:cjc174_4327"
    INDEX 01 00:55:72
  TRACK 53 AUDIO
    TITLE "0:"
    INDEX 01 00:57:12
  TRACK 54 AUDIO
    TITLE "7:cjc174_4328"
    INDEX 01 00:57:57
  TRACK 55 AUDIO
    TITLE "0:"
    INDEX 01 00:58:68
  TRACK 56 AUDIO
    TITLE "8:cjc174_4329"
    INDEX 01 00:59:42
  TRACK 57 AUDIO
    TITLE "0:"
    INDEX 01 01:01:51
  TRACK 58 AUDIO
    TITLE "7:cjc174_4330"
    INDEX 01 01:02:23
  TRACK 59 AUDIO
    TITLE "0:"
    INDEX 01 01:03:42
  TRACK 60 AUDIO
    TITLE "8:cjc174_4331"
    INDEX 01 01:04:18
  TRACK 61 AUDIO
    TITLE "0:"
    INDEX 01 01:05:23
  TRACK 62 AUDIO
    TITLE "7:cjc174_4332"
    INDEX 01 01:05:69
  TRACK 63 AUDIO
    TITLE "0:"
    INDEX 01 01:06:64
  TRACK 64 AUDIO
    TITLE "8:cjc174_4333"
    INDEX 01 01:07:38
  TRACK 65 AUDIO
    TITLE "0:"
    INDEX 01 01:10:54
  TRACK 66 AUDIO
    TITLE "7:cjc174_4334"
    INDEX 01 01:11:24
  TRACK 67 AUDIO
    TITLE "0:"
    INDEX 01 01:12:53
  TRACK 68 AUDIO
    TITLE "8:cjc174_4335"
    INDEX 01 01:13:25
  TRACK 69 AUDIO
    TITLE "0:"
    INDEX 01 01:16:55
  TRACK 70 AUDIO
    TITLE "7:cjc174_4336"
    INDEX 01 01:17:27
  TRACK 71 AUDIO
    TITLE "0:"
    INDEX 01 01:18:57
  TRACK 72 AUDIO
    TITLE "8:cjc174_4337"
    INDEX 01 01:19:37
  TRACK 73 AUDIO
    TITLE "0:"
    INDEX 01 01:20:50
